<svg width="24" height="24" viewBox="0 0 24 24" fill="none" xmlns="http://www.w3.org/2000/svg">
<g clip-path="url(#clip0)">
<path d="M23.5446 7.48694L12.5759 0.174439C12.2015 -0.0559512 11.8019 -0.0580606 11.4241 0.174439L0.455344 7.48694C0.174094 7.67439 0 8.00927 0 8.34405V15.6565C0 15.9913 0.174094 16.3262 0.455391 16.5137L11.4241 23.8272C11.7985 24.0576 12.1981 24.0597 12.5759 23.8272L23.5447 16.5137C23.8259 16.3262 24 15.9913 24 15.6565V8.34405C24 8.00927 23.8259 7.67439 23.5446 7.48694ZM13.0312 2.96008L21.1072 8.34405L17.5045 10.7548L13.0312 7.76814V2.96008ZM10.9687 2.96008V7.76814L6.49552 10.7548L2.89284 8.34405L10.9687 2.96008ZM2.0625 10.2726L4.64733 12.0003L2.0625 13.728V10.2726ZM10.9687 21.0405L2.89284 15.6566L6.49552 13.2458L10.9687 16.2325V21.0405ZM12 14.4378L8.35711 12.0003L12 9.5628L15.6429 12.0003L12 14.4378ZM13.0312 21.0405V16.2325L17.5045 13.2458L21.1072 15.6566L13.0312 21.0405ZM21.9375 13.728L19.3527 12.0003L21.9375 10.2726V13.728Z" fill="white"/>
</g>
<defs>
<clipPath id="clip0">
<rect width="24" height="24" fill="white"/>
</clipPath>
</defs>
</svg>
