<svg width="24" height="24" viewBox="0 0 24 24" fill="none" xmlns="http://www.w3.org/2000/svg">
<g clip-path="url(#clip0)">
<path d="M12.265 0.00197982C11.4478 -0.0138138 10.6312 0.0545464 9.82797 0.20598C23.704 1.90998 20.098 18.146 11.545 18.025C11.545 18.025 23.998 19.65 23.218 7.80998C22.3916 5.55645 20.9036 3.60516 18.9491 2.21187C16.9946 0.818575 14.6648 0.0482929 12.265 0.00197982V0.00197982ZM8.21297 0.82698C8.01297 0.82898 7.81097 0.83498 7.60297 0.84298C5.09795 1.81151 2.99599 3.60187 1.64127 5.9209C0.28655 8.23993 -0.240657 10.9502 0.145974 13.608C2.92997 -0.421021 18.805 4.12198 17.9 12.688C17.9 12.688 20.75 0.67398 8.21197 0.82698H8.21297ZM9.66697 5.86198C6.00197 5.88598 0.690974 7.44998 0.815974 16.344C1.45328 17.9818 2.4422 19.4599 3.71297 20.674C3.76497 20.725 3.82097 20.774 3.87497 20.823C4.23478 21.1545 4.61448 21.4637 5.01197 21.749C5.07297 21.793 5.13197 21.841 5.19297 21.884C5.61324 22.1714 6.05147 22.4316 6.50497 22.663C6.63697 22.731 6.77097 22.793 6.90497 22.856C7.2955 23.0397 7.69576 23.2019 8.10397 23.342C8.20397 23.376 8.29897 23.419 8.40097 23.451C8.88953 23.6006 9.38723 23.7185 9.89097 23.804C10.044 23.831 10.198 23.854 10.352 23.874C10.8747 23.9496 11.4018 23.9907 11.93 23.997L11.99 24C12.39 24 12.782 23.979 13.17 23.94C-0.779026 20.613 4.52497 5.01598 13.056 6.25998C13.056 6.25998 11.587 5.84998 9.66697 5.86198V5.86198ZM12.103 8.62398C11.4394 8.62378 10.7907 8.82036 10.2389 9.18884C9.68703 9.55733 9.25686 10.0812 9.00274 10.6942C8.74863 11.3071 8.68199 11.9817 8.81124 12.6325C8.9405 13.2834 9.25986 13.8813 9.72892 14.3506C10.198 14.82 10.7957 15.1397 11.4465 15.2693C12.0972 15.399 12.7718 15.3327 13.385 15.079C13.9981 14.8252 14.5222 14.3954 14.891 13.8437C15.2598 13.2921 15.4568 12.6435 15.457 11.98C15.4571 11.5394 15.3705 11.1031 15.202 10.696C15.0335 10.2889 14.7865 9.91898 14.475 9.60734C14.1636 9.29571 13.7938 9.04847 13.3868 8.87975C12.9798 8.71102 12.5436 8.62411 12.103 8.62398V8.62398ZM6.15297 10.816C6.15297 10.816 2.81997 23.09 16.172 23.196C18.2659 22.4181 20.1007 21.0702 21.4689 19.3046C22.8372 17.5389 23.6844 15.4258 23.915 13.204C23.948 12.885 23.958 12.56 23.965 12.234C23.966 12.149 23.978 12.066 23.978 11.979C23.978 11.608 23.955 11.242 23.922 10.879C20.395 24.766 4.78997 19.327 6.15197 10.816H6.15297Z" fill="white"/>
</g>
<defs>
<clipPath id="clip0">
<rect width="24" height="24" fill="white"/>
</clipPath>
</defs>
</svg>
